<mxfile host="app.diagrams.net" modified="2023-07-21T11:10:38.418Z" agent="Mozilla/5.0 (Windows NT 10.0; Win64; x64) AppleWebKit/537.36 (KHTML, like Gecko) Chrome/109.0.0.0 Safari/537.36" etag="a93KBePq9LjmblgNqc5A" version="21.6.1" type="device">
  <diagram name="Page-1" id="u-8TcUNOz87pw1hZlTox">
    <mxGraphModel dx="2109" dy="656" grid="1" gridSize="10" guides="1" tooltips="1" connect="1" arrows="1" fold="1" page="1" pageScale="1" pageWidth="850" pageHeight="1100" math="0" shadow="0">
      <root>
        <mxCell id="0" />
        <mxCell id="1" parent="0" />
        <mxCell id="LKAhSyGJalN6AHTUjMc3-1" value="" style="rounded=1;whiteSpace=wrap;html=1;" vertex="1" parent="1">
          <mxGeometry x="-40" y="90" width="120" height="60" as="geometry" />
        </mxCell>
        <mxCell id="LKAhSyGJalN6AHTUjMc3-2" value="Camera" style="text;html=1;strokeColor=none;fillColor=none;align=center;verticalAlign=middle;whiteSpace=wrap;rounded=0;" vertex="1" parent="1">
          <mxGeometry x="-10" y="105" width="60" height="30" as="geometry" />
        </mxCell>
        <mxCell id="LKAhSyGJalN6AHTUjMc3-3" value="queue" style="shape=process;whiteSpace=wrap;html=1;backgroundOutline=1;" vertex="1" parent="1">
          <mxGeometry x="220" y="260" width="120" height="30" as="geometry" />
        </mxCell>
        <mxCell id="LKAhSyGJalN6AHTUjMc3-4" value="worker thread" style="rounded=0;whiteSpace=wrap;html=1;" vertex="1" parent="1">
          <mxGeometry x="-40" y="190" width="120" height="30" as="geometry" />
        </mxCell>
        <mxCell id="LKAhSyGJalN6AHTUjMc3-5" value="queue" style="shape=process;whiteSpace=wrap;html=1;backgroundOutline=1;" vertex="1" parent="1">
          <mxGeometry x="220" y="380" width="120" height="30" as="geometry" />
        </mxCell>
        <mxCell id="LKAhSyGJalN6AHTUjMc3-8" value="" style="rounded=1;whiteSpace=wrap;html=1;" vertex="1" parent="1">
          <mxGeometry x="410" y="280" width="120" height="60" as="geometry" />
        </mxCell>
        <mxCell id="LKAhSyGJalN6AHTUjMc3-9" value="File Writer" style="text;html=1;strokeColor=none;fillColor=none;align=center;verticalAlign=middle;whiteSpace=wrap;rounded=0;" vertex="1" parent="1">
          <mxGeometry x="440" y="295" width="60" height="30" as="geometry" />
        </mxCell>
        <mxCell id="LKAhSyGJalN6AHTUjMc3-10" value="worker thread" style="rounded=0;whiteSpace=wrap;html=1;" vertex="1" parent="1">
          <mxGeometry x="410" y="380" width="120" height="30" as="geometry" />
        </mxCell>
        <mxCell id="LKAhSyGJalN6AHTUjMc3-12" value="" style="endArrow=none;html=1;rounded=0;exitX=0.333;exitY=0.003;exitDx=0;exitDy=0;exitPerimeter=0;" edge="1" parent="1" source="LKAhSyGJalN6AHTUjMc3-10">
          <mxGeometry width="50" height="50" relative="1" as="geometry">
            <mxPoint x="450" y="370" as="sourcePoint" />
            <mxPoint x="450" y="340" as="targetPoint" />
          </mxGeometry>
        </mxCell>
        <mxCell id="LKAhSyGJalN6AHTUjMc3-15" value="" style="endArrow=none;html=1;rounded=0;entryX=0.31;entryY=1.002;entryDx=0;entryDy=0;entryPerimeter=0;exitX=0.31;exitY=-0.027;exitDx=0;exitDy=0;exitPerimeter=0;" edge="1" parent="1" source="LKAhSyGJalN6AHTUjMc3-4" target="LKAhSyGJalN6AHTUjMc3-1">
          <mxGeometry width="50" height="50" relative="1" as="geometry">
            <mxPoint x="400" y="360" as="sourcePoint" />
            <mxPoint x="450" y="310" as="targetPoint" />
          </mxGeometry>
        </mxCell>
        <mxCell id="LKAhSyGJalN6AHTUjMc3-17" value="" style="endArrow=classic;html=1;rounded=0;exitX=1;exitY=0.5;exitDx=0;exitDy=0;entryX=0;entryY=0.5;entryDx=0;entryDy=0;" edge="1" parent="1" source="LKAhSyGJalN6AHTUjMc3-5" target="LKAhSyGJalN6AHTUjMc3-10">
          <mxGeometry width="50" height="50" relative="1" as="geometry">
            <mxPoint x="400" y="410" as="sourcePoint" />
            <mxPoint x="450" y="360" as="targetPoint" />
          </mxGeometry>
        </mxCell>
        <mxCell id="LKAhSyGJalN6AHTUjMc3-19" value="" style="endArrow=classic;html=1;rounded=0;exitX=0.75;exitY=1;exitDx=0;exitDy=0;entryX=0;entryY=0.5;entryDx=0;entryDy=0;" edge="1" parent="1" source="LKAhSyGJalN6AHTUjMc3-4" target="LKAhSyGJalN6AHTUjMc3-3">
          <mxGeometry width="50" height="50" relative="1" as="geometry">
            <mxPoint x="400" y="360" as="sourcePoint" />
            <mxPoint x="450" y="310" as="targetPoint" />
            <Array as="points">
              <mxPoint x="50" y="275" />
            </Array>
          </mxGeometry>
        </mxCell>
        <mxCell id="LKAhSyGJalN6AHTUjMc3-20" value="" style="endArrow=classic;html=1;rounded=0;exitX=0.5;exitY=1;exitDx=0;exitDy=0;entryX=0;entryY=0.5;entryDx=0;entryDy=0;" edge="1" parent="1" source="LKAhSyGJalN6AHTUjMc3-4" target="LKAhSyGJalN6AHTUjMc3-5">
          <mxGeometry width="50" height="50" relative="1" as="geometry">
            <mxPoint x="400" y="360" as="sourcePoint" />
            <mxPoint x="450" y="310" as="targetPoint" />
            <Array as="points">
              <mxPoint x="20" y="395" />
            </Array>
          </mxGeometry>
        </mxCell>
        <mxCell id="LKAhSyGJalN6AHTUjMc3-21" value="Flask application" style="rounded=1;whiteSpace=wrap;html=1;" vertex="1" parent="1">
          <mxGeometry x="410" y="90" width="120" height="60" as="geometry" />
        </mxCell>
        <mxCell id="LKAhSyGJalN6AHTUjMc3-22" value="generator function" style="rounded=0;whiteSpace=wrap;html=1;" vertex="1" parent="1">
          <mxGeometry x="410" y="190" width="120" height="30" as="geometry" />
        </mxCell>
        <mxCell id="LKAhSyGJalN6AHTUjMc3-23" value="" style="endArrow=classic;html=1;rounded=0;exitX=1;exitY=0.5;exitDx=0;exitDy=0;entryX=0;entryY=0.5;entryDx=0;entryDy=0;" edge="1" parent="1" source="LKAhSyGJalN6AHTUjMc3-3" target="LKAhSyGJalN6AHTUjMc3-22">
          <mxGeometry width="50" height="50" relative="1" as="geometry">
            <mxPoint x="400" y="360" as="sourcePoint" />
            <mxPoint x="400" y="205" as="targetPoint" />
            <Array as="points">
              <mxPoint x="360" y="275" />
              <mxPoint x="360" y="205" />
            </Array>
          </mxGeometry>
        </mxCell>
        <mxCell id="LKAhSyGJalN6AHTUjMc3-26" value="" style="endArrow=none;html=1;rounded=0;entryX=0.25;entryY=1;entryDx=0;entryDy=0;exitX=0.25;exitY=0;exitDx=0;exitDy=0;" edge="1" parent="1" source="LKAhSyGJalN6AHTUjMc3-22" target="LKAhSyGJalN6AHTUjMc3-21">
          <mxGeometry width="50" height="50" relative="1" as="geometry">
            <mxPoint x="400" y="360" as="sourcePoint" />
            <mxPoint x="450" y="310" as="targetPoint" />
          </mxGeometry>
        </mxCell>
      </root>
    </mxGraphModel>
  </diagram>
</mxfile>
